<?xml version="1.0" encoding="utf-8"?>
<!-- Generator: Adobe Illustrator 18.0.0, SVG Export Plug-In . SVG Version: 6.00 Build 0)  -->
<!DOCTYPE svg PUBLIC "-//W3C//DTD SVG 1.1//EN" "http://www.w3.org/Graphics/SVG/1.1/DTD/svg11.dtd">
<svg version="1.1" id="Layer_1" xmlns="http://www.w3.org/2000/svg" xmlns:xlink="http://www.w3.org/1999/xlink" x="0px" y="0px"
	 viewBox="0 0 612 792" enable-background="new 0 0 612 792" xml:space="preserve">
<g>
	<path fill="#DA1F27" d="M555.3,260v35.7c0,22.6-35.7,23.4-35.7,0c0,0,0-105.6,0-106.4c0-36.6-56.7-36.6-56.7,0c0,0,0,69.8,0,70.6
		c0,22.6-35.7,23.4-35.7,0c0,0,0-118.3,0-119.1c0-36.6-56.7-36.6-56.7,0v44.4c0,22.6-35.7,23.4-35.7,0V92.9c0-34.9-56.7-36.6-56.7,0
		c0,0,0,91.6,0,92.4c0,23.4-35.7,23.4-35.7,0v-43.9c0-35.7-56.7-36.6-56.7,0c0,0,0,109.7,0,110.9c0,22.6-35.7,23.4-35.7,0
		c0,0,0-61.6,0-62.4c0-36.6-56.7-36.6-56.7,0c0,0,0,223.9,0,224.7c0,22.6-35.7,23.4-35.7,0v-154c0-34.9-56.7-36.6-56.7,0
		c0,322,0,322,0,317.1c0,36.6,56.7,36.6,56.7,0c0,0,0-30.8,0-31.6c0-22.6,35.7-23.4,35.7,0v101.5c0,36.6,56.7,36.6,56.7,0v-65.7
		c0-22.6,35.7-23.4,35.7,0v114.2c0,36.6,56.7,36.6,56.7,0V656c0-22.6,35.7-23.4,35.7,0c0,0,0,87.5,0,88.3c0,34.9,56.7,36.6,56.7,0
		c0,0,0-87.5,0-88.3c0-23.4,35.7-23.4,35.7,0c0,0,0,39,0,39.8c0,35.7,56.7,36.6,56.7,0V590.3c0-22.6,35.7-23.4,35.7,0v57.5
		c0,36.6,56.7,36.6,56.7,0v-216c0-22.6,35.7-23.4,35.7,0v145.8c0,34.9,56.7,36.6,56.7,0V260.4C611.6,224.3,555.3,223.5,555.3,260z"
		/>
	<path fill="#ED2A26" d="M307.2,764.4c-12.3,0-24.2-6.6-24.2-20.1c0,0,0-87.5,0-88.3c0-28.3-44.8-28.3-44.8,0v39.8
		c0,30-47.6,30-47.6,0V581.6c0-27.5-44.8-28.3-44.8,0v65.7c0,30-47.6,30-47.6,0V545.9c0-28.3-44.8-28.3-44.8,0v31.6
		c0,29.2-47.6,30.8-47.6,0c0,0,0-316.3,0-317.1c0-28.3,47.6-30,47.6,0v154c0,28.3,44.8,28.3,44.8,0c0,0,0-223.9,0-224.7
		c0-29.2,47.6-30,47.6,0c0,0,0,61.6,0,62.4c0,28.3,44.8,28.3,44.8,0V141.3c0-29.2,47.6-30,47.6,0v43.9c0,28.3,44.8,28.3,44.8,0V92.9
		c0-29.2,47.6-29.2,47.6,0v92.4c0,27.5,44.8,28.3,44.8,0v-43.9c0-30,47.6-30,47.6,0c0,0,0,118.3,0,119.1c0,28.3,44.8,28.3,44.8,0
		v-70.6c0-29.2,47.6-30,47.6,0c0,0,0,105.6,0,106.4c0,28.3,44.8,28.3,44.8,0v-35.7c0-30,47.6-30,47.6,0v317.1
		c0,29.2-47.6,29.2-47.6,0c0,0,0-145,0-145.8c0-28.3-44.8-28.3-44.8,0v215.6c0,30-47.6,30-47.6,0v-57.5c0-28.3-44.8-28.3-44.8,0
		v105.6c0,29.2-47.6,30-47.6,0v-39.8c0-28.3-44.8-28.3-44.8,0c0,0,0,87.5,0,88.3C330.2,757.8,318.7,764.4,307.2,764.4z"/>
	<path fill="#DA1F27" d="M282.2,187.7c-2.5,25.9-44.8,25.1-44.8-2.5v-43.9c0-30-47.6-29.2-47.6,0v110.9c0,28.3-44.8,28.3-44.8,0
		v-62.8c0-30-47.6-29.2-47.6,0c0,0.8,0,224.7,0,224.7c0,28.3-44.8,28.3-44.8,0c0-0.8,0-154,0-154c0-30-47.6-28.3-47.6,0
		c0,0.8,0,317.1,0,317.1c0,30.8,47.6,29.2,47.6,0v-31.6c0-28.3,44.8-28.3,44.8,0v101.5c0,30,47.6,30,47.6,0v-65.7
		c0-28.3,44.8-27.5,44.8,0v114.2c0,30,47.6,30,47.6,0v-39.8c0-28.3,44.8-28.3,44.8,0v88.3c0,14,12.3,20.9,24.2,20.1
		c11.5,0,23.4-6.6,23.4-20.1c0-0.8,0-88.3,0-88.3c0-28.3,44.8-28.3,44.8,0v39.8c0,30,47.6,29.2,47.6,0V589.8
		c0-28.3,44.8-28.3,44.8,0v57.5c0,30,47.6,30,47.6,0c0-0.8,0-215.6,0-215.6c0-28.3,44.8-28.3,44.8,0c0,0.8,0,145.8,0,145.8
		c0,29.2,47.6,29.2,47.6,0V394.3C470.3,382.4,349.5,301.5,282.2,187.7z"/>
	<g>
		<path fill="#C72127" d="M476,492.9c-166.3,0-313-102.3-378.7-247.3c0,66.5,0,168.8,0,168.8c0,28.3-44.8,28.3-44.8,0
			c0-0.8,0-154,0-154c0-30-47.6-28.3-47.6,0c0,0.8,0,317.1,0,317.1c0,30.8,47.6,29.2,47.6,0v-31.6c0-28.3,44.8-28.3,44.8,0v101.5
			c0,30,47.6,30,47.6,0v-65.7c0-28.3,44.8-27.5,44.8,0v114.2c0,30,47.6,30,47.6,0V656c0-28.3,44.8-28.3,44.8,0v88.3
			c0,14,12.3,20.9,24.2,20.1c11.5,0,23.4-6.6,23.4-20.1c0-0.8,0-88.3,0-88.3c0-28.3,44.8-28.3,44.8,0v39.8c0,30,47.6,29.2,47.6,0
			V590.3c0-28.3,44.8-28.3,44.8,0v57.5c0,30,47.6,30,47.6,0V490.4C501.9,492.1,489.6,492.9,476,492.9z"/>
		<path fill="#C72127" d="M559.4,483.9c0,41.5,0,93.2,0,93.2c0,29.2,47.6,29.2,47.6,0V470.7C591.9,476.5,575.9,480.6,559.4,483.9z"
			/>
	</g>
	<g>
		<path fill="#AF1F24" d="M382.8,607.9c-166.3,0-312.2-102.3-377.9-246.4c0,93.2,0,215.6,0,215.6c0,30.8,47.6,29.2,47.6,0v-31.6
			c0-28.3,44.8-28.3,44.8,0v101.5c0,30,47.6,30,47.6,0v-65.7c0-28.3,44.8-27.5,44.8,0v114.2c0,30,47.6,30,47.6,0v-39.8
			c0-28.3,44.8-28.3,44.8,0v88.3c0,14,12.3,20.9,24.2,20.1c11.5,0,23.4-6.6,23.4-20.1c0-0.8,0-88.3,0-88.3c0-28.3,44.8-28.3,44.8,0
			v39.8c0,30,47.6,29.2,47.6,0v-89.1C409.5,607.1,396.4,607.9,382.8,607.9z"/>
		<path fill="#AF1F24" d="M559.4,567.3c0,6.6,0,9.9,0,9.9c0,29.2,47.6,29.2,47.6,0v-36.6C591.9,550.4,575.9,559.9,559.4,567.3z"/>
		<path fill="#AF1F24" d="M467,598.9c0,16,0,49.3,0,49.3c0,30,47.6,30,47.6,0v-62.4C499.5,591.5,483.4,595.6,467,598.9z"/>
	</g>
	<path fill="#FFFFFF" d="M272.3,294.9l154.8,89.1c26.7,14.8,26.7,53.4,0,68.2l-154.8,90c-26.7,14.8-59.1-4.1-59.1-34.1V329
		C213.2,299,245.6,280.1,272.3,294.9z"/>
</g>
</svg>
